# xmcd
#
# Track frame offsets: 
#        150
#        16257
#        36209
#        56231
#        80133
#        103754
#        133153
#        150681
#        172173
#        198259
#        217294
#        236085
#        260312
#        280313
#        306215
#
# Disc length: 4431 seconds
#
# Revision: 2
# Processed by: cddbd v1.5.2PL0 Copyright (c) Steve Scherf et al.
# Submitted via: ExactAudioCopy v0.95b3
#
DISCID=e4114d0f
DTITLE=Richard Marks - Best Ballads
DYEAR=1997
DGENRE=Ballad
TTITLE0=Now And Forever
TTITLE1=Right Here Waiting
TTITLE2=Until I Find You Again
TTITLE3=Hazard
TTITLE4=Angelia
TTITLE5=Can't Lie To My Heart
TTITLE6=Silent Scream
TTITLE7=Children Of The Night
TTITLE8=Keep Coming Back
TTITLE9=Take This Heart
TTITLE10=One Man
TTITLE11=Fool's Game
TTITLE12=Nothing Left Behind Us
TTITLE13=Chains Around My Heart
TTITLE14=Breathless
EXTD=
EXTT0=
EXTT1=
EXTT2=
EXTT3=
EXTT4=
EXTT5=
EXTT6=
EXTT7=
EXTT8=
EXTT9=
EXTT10=
EXTT11=
EXTT12=
EXTT13=
EXTT14=
PLAYORDER=
